<?xml version="1.0" encoding="iso-8859-1"?>
<!-- Uploaded to: SVG Repo, www.svgrepo.com, Generator: SVG Repo Mixer Tools -->
<svg version="1.1" id="Layer_1" xmlns="http://www.w3.org/2000/svg" xmlns:xlink="http://www.w3.org/1999/xlink" 
	 viewBox="0 0 392.598 392.598" xml:space="preserve">
<path style="fill:#194F82;" d="M381.737,311.24h-6.982V124.477c0-6.012-4.848-10.925-10.925-10.925h-30.836V65.519h2.133
	c6.012,0,10.925-4.848,10.925-10.925V10.958c0-6.012-4.849-10.925-10.925-10.925H226.65c-6.012,0-10.925,4.848-10.925,10.925v43.572
	c0,6.012,4.848,10.925,10.925,10.925h2.133v48.032h-64.905V65.519h2.133c6.012,0,10.925-4.848,10.925-10.925V10.958
	c0-6.012-4.848-10.925-10.925-10.925H57.471c-6.012,0-10.925,4.848-10.925,10.925v43.572c0,6.012,4.848,10.925,10.925,10.925h2.133
	v48.032H28.832c-6.012,0-10.925,4.848-10.925,10.925V311.24h-6.982C4.913,311.24,0,316.089,0,322.166v59.475
	c0,6.012,4.848,10.925,10.925,10.925h370.747c6.012,0,10.925-4.848,10.925-10.925v-59.475
	C392.598,316.218,387.749,311.24,381.737,311.24z M237.511,21.883h86.756v21.786h-86.756V21.883z M311.208,65.519V192.42h-60.574
	V65.519H311.208z M311.208,214.206v26.958c0,16.679-13.576,30.319-30.319,30.319c-16.743,0-30.319-13.576-30.319-30.319v-26.958
	H311.208z M68.396,21.883h86.756v21.786H68.396V21.883z M142.028,65.519v83.329H81.455V65.519H142.028z M142.028,170.634v70.529
	c0,16.679-13.576,30.319-30.319,30.319S81.39,257.907,81.39,241.164V170.57h60.638V170.634z M39.693,135.402h19.911v105.762
	c0,28.768,23.402,52.105,52.105,52.105s52.17-23.337,52.17-52.105V135.402h64.905v105.762c0,28.768,23.402,52.105,52.105,52.105
	s52.105-23.402,52.105-52.105V135.402h19.911V311.37H39.693V135.402z M370.812,370.844H21.851v-37.689h348.962L370.812,370.844
	L370.812,370.844z"/>
<rect x="21.851" y="333.156" style="fill:#FFC10D;" width="348.962" height="37.689"/>
<g>
	<rect x="68.396" y="21.883" style="fill:#FFFFFF;" width="86.756" height="21.786"/>
	<rect x="237.511" y="21.883" style="fill:#FFFFFF;" width="86.756" height="21.786"/>
</g>
<path style="fill:#FFC10D;" d="M280.954,271.483c16.679,0,30.319-13.576,30.319-30.319v-26.958h-60.638v26.958
	C250.634,257.842,264.275,271.483,280.954,271.483z"/>
<rect x="250.634" y="65.519" style="fill:#FFFFFF;" width="60.574" height="126.901"/>
<path style="fill:#56ACE0;" d="M111.709,271.483c16.679,0,30.319-13.576,30.319-30.319V170.57H81.455v70.659
	C81.455,257.842,95.03,271.483,111.709,271.483z"/>
<rect x="81.455" y="65.519" style="fill:#FFFFFF;" width="60.574" height="83.329"/>
</svg>